<?xml version="1.0" encoding="utf-8"?>
<!-- Generator: Adobe Illustrator 25.4.8, SVG Export Plug-In . SVG Version: 6.00 Build 0)  -->
<svg version="1.1" id="レイヤー_1" xmlns="http://www.w3.org/2000/svg" xmlns:xlink="http://www.w3.org/1999/xlink" x="0px"
	 y="0px" viewBox="0 0 242 65" style="enable-background:new 0 0 242 65;" xml:space="preserve">
<style type="text/css">
	.st0{fill:#FFFFFF;}
</style>
<g id="footer_ride_logo" transform="translate(-2863 -3652)">
	<g id="foot_logo_top_txt" transform="translate(2863 3652)">
		<path id="パス_211" class="st0" d="M7.1,0.9C7.3,0.9,7.5,1,7.5,1.2c0,0.1,0,0.2-0.1,0.3C7.2,1.6,7.1,1.9,7.1,2.1
			C7.1,2.4,7,2.7,7,3c1.5-0.1,3-0.4,4.5-0.7c0.2-0.1,0.3,0,0.3,0.2C11.9,2.8,12,3.2,12,3.6c0,0.2-0.2,0.3-0.4,0.3
			C10,4.3,8.3,4.5,6.7,4.7C6.6,5.4,6.6,5.8,6.5,6.4C7.4,6.2,8.3,6,9.2,6c0.2-0.4,0.3-0.8,0.3-1.3C10,4.9,10.6,5.1,11,5.4
			c0.2,0.1,0.3,0.3,0.3,0.4c0,0.1,0,0.2-0.1,0.2c-0.1,0.1-0.2,0.2-0.2,0.3c2.2,0.6,3.6,2.1,3.6,4.3c0,2.5-2.1,4.1-4.8,4.9
			c-0.4,0.1-0.6,0.1-0.8-0.3c-0.3-0.4-0.6-0.8-1-1.1c1.1-0.2,2.2-0.7,3.2-1.3c0.9-0.6,1.4-1.5,1.4-2.6c0-1.3-0.9-2.3-2.2-2.5
			c-0.9,1.7-2,3.2-3.3,4.5c0.1,0.3,0.2,0.5,0.3,0.8c0.1,0.2,0,0.3-0.1,0.4c-0.3,0.2-0.7,0.4-1,0.6C6.1,14.1,6,14.1,5.9,14
			c-0.1-0.2-0.2-0.4-0.3-0.7c-0.9,0.7-1.9,1.1-3,1.2c-1,0-1.9-0.8-1.9-1.8c0-0.1,0-0.2,0-0.3C0.7,10.1,2.6,8,4.7,7
			c0-0.7,0.1-1.5,0.1-2.2c-1,0-1.5,0-1.8,0c-0.3,0-0.7,0-1,0c-0.2,0-0.3-0.1-0.3-0.4c0-0.4,0-0.8-0.1-1.3C2.8,3.2,3.9,3.2,5,3.1
			c0.1-0.6,0.1-1.4,0.1-1.9c0-0.3,0-0.5-0.1-0.8C5.8,0.5,6.5,0.7,7.1,0.9z M2.5,12c0,0.3,0.2,0.6,0.5,0.7c0,0,0,0,0,0h0.1
			c0.8-0.1,1.5-0.5,2-1c-0.2-1-0.3-2-0.3-3C3.5,9.4,2.7,10.6,2.5,12L2.5,12z M8.7,7.5c-0.8,0-1.5,0.2-2.2,0.4c0,0.9,0.1,1.7,0.2,2.6
			C7.4,9.6,8.1,8.6,8.7,7.5z"/>
		<path id="パス_212" class="st0" d="M24.7,3.1c0.2-0.1,0.2-0.1,0.3,0.1c0.1,0.5,0.1,0.9,0.2,1.4c0,0.2-0.1,0.2-0.2,0.2
			C24,5.1,23.1,5.2,22,5.3c-0.9,2.6-2.1,5.1-3.4,7.5c-0.1,0.1-0.1,0.2-0.2,0.2c-0.1,0-0.1,0-0.2-0.1c-0.4-0.3-0.8-0.6-1.2-0.9
			c-0.1-0.1-0.1-0.1-0.1-0.2c0-0.1,0-0.2,0.1-0.2c1.2-1.9,2.2-3.9,3-6.1c-0.7,0-1.2,0-1.7,0c-0.4,0-0.5,0-1,0
			c-0.2,0-0.2-0.1-0.2-0.3c-0.1-0.5-0.2-1-0.2-1.5c0.7,0.1,1.1,0.1,1.6,0.1c0.7,0,1.2,0,2-0.1C20.7,3,20.8,2.5,21,1.8
			c0.1-0.5,0.1-0.9,0.1-1.4c0.7,0.1,1.4,0.2,2,0.4c0.2,0,0.3,0.1,0.3,0.3c0,0.1-0.1,0.2-0.2,0.3C23.1,1.6,23,1.8,23,2
			c-0.1,0.4-0.3,1-0.4,1.5C23.3,3.4,24,3.3,24.7,3.1z M25.2,7.8c0-0.4,0-0.8-0.1-1.2c0.6,0,1.3,0.2,1.9,0.3c0.1,0,0.2,0.1,0.2,0.3
			c0,0.1-0.1,0.2-0.1,0.4C27,7.8,27,8,27,8.2c0,1,0.1,2,0.2,3c1.1,0.4,2.2,1,3.1,1.6c0.2,0.1,0.2,0.2,0.1,0.4
			c-0.2,0.5-0.5,1-0.8,1.4c-0.1,0.1-0.1,0.1-0.2,0.1s-0.1,0-0.2-0.1c-0.7-0.6-1.4-1.1-2.1-1.5c0,1.7-1.3,2.5-3.2,2.5
			c-1.9,0-3.2-1-3.2-2.5c0-1.5,1.3-2.5,3.2-2.5c0.5,0,0.9,0,1.4,0.1C25.2,9.7,25.2,8.6,25.2,7.8L25.2,7.8z M23.9,12.2
			c-0.9,0-1.5,0.3-1.5,1c0,0.6,0.5,0.8,1.5,0.8c0.9,0,1.5-0.5,1.5-1.2c0-0.1,0-0.2,0-0.3C24.9,12.3,24.4,12.2,23.9,12.2L23.9,12.2z
			 M27.2,3.8c0-0.1,0.2-0.2,0.3-0.1c0,0,0,0,0.1,0c1.2,0.4,2.3,0.9,3.4,1.6c0.1,0.1,0.2,0.1,0.2,0.2c0,0.1,0,0.1-0.1,0.2
			c-0.2,0.4-0.5,0.9-0.7,1.3c-0.1,0.1-0.1,0.1-0.2,0.1c-0.1,0-0.1,0-0.2-0.1c-1.1-0.8-2.3-1.4-3.6-1.9C26.7,4.6,26.9,4.1,27.2,3.8
			L27.2,3.8z"/>
		<path id="パス_213" class="st0" d="M41.7,3.2c0.2-0.1,0.3,0,0.3,0.2c0.1,0.4,0.1,0.9,0.1,1.2c0,0.2,0,0.3-0.3,0.3
			c-1,0.3-2,0.5-3,0.7c-1.2,3.9-2.1,6.5-3.2,9.4c-0.1,0.2-0.2,0.2-0.4,0.2c-0.2-0.1-1-0.4-1.4-0.6c-0.1-0.1-0.2-0.2-0.1-0.3
			c1.2-2.7,2.2-5.4,3-8.2c-1,0.1-2.2,0.2-3,0.2c-0.3,0-0.3-0.1-0.4-0.3c-0.1-0.4-0.2-1-0.2-1.6c0.4,0.1,0.9,0.1,1.3,0.1
			c0.9,0,1.9-0.1,2.8-0.2c0.2-0.7,0.3-1.5,0.4-2.2c0.1-0.5,0.1-1.1,0.1-1.6c0.7,0.1,1.5,0.2,2.2,0.5c0.1,0,0.2,0.2,0.2,0.3
			c0,0.1,0,0.2-0.1,0.3c-0.1,0.2-0.3,0.4-0.4,0.7c-0.2,0.6-0.3,1.2-0.4,1.7C40,3.7,40.9,3.5,41.7,3.2z M41,11.5
			c0.2,0,0.2,0.1,0.3,0.2c0.1,1.3,1,1.6,2.7,1.6c1,0,2-0.1,2.9-0.2c0.1,0,0.2,0,0.2,0.2c0.1,0.5,0.1,1,0.1,1.5c0,0.2,0,0.3-0.3,0.3
			c-0.8,0.1-1.6,0.2-2.4,0.2c-2.3,0-3.5-0.3-4.2-1.1c-0.6-0.7-0.8-1.5-0.8-2.4C40.1,11.7,40.5,11.6,41,11.5z M40.9,6.9
			c0-0.2,0.1-0.3,0.3-0.3c1.1-0.2,2.3-0.4,3.4-0.4c0.7,0,1.4,0.1,2,0.2c0.2,0,0.3,0.1,0.3,0.3c0,0.5,0,0.9,0,1.4
			c0,0.3-0.1,0.4-0.3,0.3c-0.7-0.1-1.4-0.2-2.2-0.2c-1.2,0-2.3,0.2-3.5,0.4C40.9,7.9,40.9,7.3,40.9,6.9L40.9,6.9z"/>
		<path id="パス_214" class="st0" d="M54.7,1.3C54.9,1.4,55,1.4,55,1.6c0,0.2-0.1,0.5-0.1,0.7c0,0.3,0,0.7,0.1,1.1
			c0.1,1,0.3,2,0.5,2.9c0.9-0.5,1.5-0.8,2.4-1.3c0.4-0.2,0.8-0.5,1.2-0.9c0.5,0.5,0.9,1,1.2,1.6c0.1,0.1,0.1,0.2,0.1,0.4
			c0,0.2-0.1,0.3-0.3,0.3C59.5,6.6,59,6.7,58.4,7c-1.4,0.5-2.7,1.2-4,2c-1.5,1-2,1.8-2,2.6c0,1,0.7,1.4,2.7,1.4
			c1.7,0,3.5-0.1,5.2-0.4c0.2,0,0.3,0,0.3,0.2c0.1,0.5,0.1,1.1,0.2,1.6c0,0.2-0.1,0.3-0.3,0.3c-1.7,0.2-3.4,0.3-5.1,0.2
			c-3.2,0-4.9-1.1-4.9-3.3c0-1.9,1.2-3.1,3.2-4.4c-0.4-1.4-0.7-2.7-0.9-4.2c-0.1-0.7-0.2-1.3-0.4-2C53.2,1.1,53.9,1.1,54.7,1.3z"/>
		<path id="パス_215" class="st0" d="M67.2,6.7c0.4-0.9,0.7-1.9,0.9-2.8c0.8,0.3,1.6,0.6,2.4,1c0.1,0,0.2,0.2,0.2,0.3
			c0,0.1-0.1,0.3-0.2,0.4c-0.3,0.3-0.5,0.7-0.7,1.2c-1,2.4-2.4,4.6-4.1,6.4c-0.1,0.2-0.3,0.3-0.5,0.3c-0.2,0-0.3-0.1-0.4-0.2
			c-0.5-0.4-1.1-0.7-1.7-0.8C64.8,10.8,66.2,8.8,67.2,6.7z M74.3,4.1C74.4,4,74.5,4,74.6,4c0.1,0,0.2,0.1,0.3,0.2
			c2,2,3.6,4.4,4.8,7.1c0.1,0.1,0.1,0.2,0.1,0.3c0,0.1-0.1,0.2-0.2,0.3c-0.5,0.4-1,0.7-1.6,1c-0.2,0.1-0.4,0.1-0.5-0.2
			c-1.1-2.8-2.7-5.3-4.7-7.5C73.5,4.7,74,4.3,74.3,4.1L74.3,4.1z M76.6,1.8c0.1-0.1,0.2-0.1,0.3,0c0.7,0.6,1.3,1.3,1.8,2.1
			c0.1,0.1,0.1,0.2,0,0.3c0,0,0,0,0,0c0,0,0,0,0,0l-0.8,0.6c-0.1,0.1-0.2,0.1-0.3,0c0,0,0,0,0,0c0,0,0,0,0-0.1
			c-0.5-0.8-1.2-1.6-1.9-2.2L76.6,1.8z M78.3,0.5c0.1-0.1,0.2-0.1,0.3,0c0.7,0.6,1.3,1.2,1.8,2c0.1,0.1,0.1,0.2,0,0.3c0,0,0,0,0,0
			c0,0,0,0,0,0l-0.8,0.6c-0.1,0.1-0.2,0.1-0.3,0c0,0,0,0,0-0.1c-0.5-0.8-1.2-1.6-1.9-2.2L78.3,0.5z"/>
		<path id="パス_216" class="st0" d="M91.5,11.8c0,1.3,0,2.4,0,3.8c0,0.2-0.1,0.3-0.3,0.3c-0.6,0-1.2,0-1.8,0
			c-0.2,0-0.3-0.1-0.3-0.3c0-1.3,0.1-2.5,0.1-3.8l0-4.3c-1.6,1.3-3.3,2.5-5.1,3.5c-0.1,0-0.2,0.1-0.3,0.1c-0.2,0-0.3-0.1-0.4-0.2
			c-0.5-0.4-1-0.8-1.6-1.1c3.7-1.9,7.1-4.5,9.8-7.6c0.5-0.5,0.9-1.2,1.2-1.9c0.7,0.4,1.4,0.8,2,1.3C95,1.7,95,1.8,95,1.9
			c0,0.2-0.1,0.3-0.3,0.4c-0.4,0.3-0.8,0.6-1.1,1c-0.7,0.8-1.4,1.6-2.2,2.3L91.5,11.8z"/>
		<path id="パス_217" class="st0" d="M107,3.4c0.3,0,0.6-0.1,0.9-0.2c0.1-0.1,0.2-0.1,0.2-0.1c0.1,0,0.2,0,0.3,0.1
			c0.4,0.3,0.9,0.6,1.3,1c0.1,0.1,0.2,0.3,0.2,0.4c0,0.2-0.1,0.3-0.2,0.4c-0.3,0.2-0.5,0.5-0.6,0.8c-1,2.1-2.2,4-3.7,5.7
			c-1.6,1.8-3.5,3.4-5.6,4.6c-0.1,0.1-0.2,0.1-0.3,0.1c-0.2,0-0.3-0.1-0.4-0.2c-0.5-0.4-1.1-0.7-1.8-0.9c2.3-1.2,4.4-2.8,6.2-4.7
			c1.4-1.5,2.6-3.3,3.4-5.2l-4.5,0.1c-1,1.4-2.2,2.6-3.5,3.8c-0.1,0.1-0.2,0.2-0.4,0.2c-0.1,0-0.2,0-0.3-0.1
			c-0.5-0.4-1.1-0.7-1.8-0.8c2-1.5,3.6-3.4,5-5.5c0.5-0.8,0.9-1.6,1.1-2.5c0.8,0.2,1.5,0.6,2.2,1c0.1,0.1,0.2,0.2,0.2,0.3
			c0,0.1-0.1,0.3-0.2,0.3c-0.2,0.1-0.3,0.3-0.5,0.5c-0.2,0.3-0.4,0.6-0.6,0.9L107,3.4z"/>
		<path id="パス_218" class="st0" d="M120.8,12.2c0,0.2-0.1,0.3-0.3,0.3c-0.4,0.1-0.8,0.1-1.2,0.1c-0.1,0-0.2-0.1-0.2-0.3
			c0-0.6,0-1.4,0-2c-1.5,0.8-2,1.4-2,2.2c0,0.7,0.6,1.2,2.3,1.2c1.4,0,2.8-0.1,4.1-0.3c0.1,0,0.2,0,0.2,0.2c0.1,0.4,0.1,0.9,0.1,1.4
			c0,0.2-0.1,0.3-0.2,0.3c-1.4,0.2-2.8,0.2-4.1,0.2c-2.7,0-4.2-0.8-4.2-2.8c0-1.6,1-2.8,3.5-4.1c0-0.9-0.2-1.2-1-1.2
			c-0.9,0.1-1.7,0.6-2.3,1.2c-0.6,0.6-1.1,1.2-1.7,1.8c-0.1,0.1-0.1,0.1-0.2,0.1c-0.1,0-0.1-0.1-0.2-0.1c-0.3-0.3-0.7-0.7-0.9-1.1
			c0,0-0.1-0.1-0.1-0.1c0-0.1,0-0.1,0.1-0.2c1.4-1.2,2.6-2.6,3.5-4.1c-0.8,0-1.7,0-2.7,0c-0.2,0-0.2-0.1-0.2-0.3
			c0-0.3-0.1-0.9-0.2-1.4c1.3,0.1,2.6,0.1,3.8,0c0.2-0.5,0.4-0.9,0.5-1.4c0.1-0.3,0.1-0.7,0.1-1c0.6,0.1,1.3,0.3,1.9,0.5
			c0.1,0,0.2,0.2,0.2,0.3c0,0.1,0,0.2-0.1,0.2c-0.1,0.1-0.2,0.2-0.3,0.4c-0.1,0.2-0.2,0.5-0.4,0.9c1-0.1,2-0.3,3-0.5
			c0.2,0,0.2,0,0.3,0.2c0.1,0.4,0.2,0.8,0.2,1.2c0,0.2-0.1,0.2-0.3,0.3c-1.2,0.2-2.7,0.4-3.9,0.5c-0.4,0.6-0.8,1.3-1.3,1.8l0,0
			c0.5-0.3,1.1-0.5,1.7-0.5c1-0.1,1.9,0.6,2,1.6c0,0,0,0,0,0c0,0.1,0,0.1,0,0.2c0.7-0.3,1.6-0.7,2.5-1.2c0.5-0.2,0.9-0.5,1.3-0.9
			c0.4,0.5,0.8,0.9,1.2,1.5c0.1,0.1,0.1,0.2,0.1,0.4c0,0.1-0.1,0.2-0.2,0.2c-0.3,0-0.7,0.1-1,0.2c-1.1,0.4-2.2,0.7-3.6,1.3
			L120.8,12.2z"/>
		<path id="パス_219" class="st0" d="M131.1,5c2-0.8,4.1-1.3,6.3-1.4c3.1,0,5.1,1.9,5.1,4.6c0.1,2.1-1.1,4-3.1,4.8
			c-1.4,0.7-2.9,1.2-4.4,1.4c-0.3,0.1-0.5,0.1-0.6-0.3c-0.3-0.6-0.7-1-1.2-1.4c1.6-0.2,3.2-0.6,4.7-1.3c1.4-0.6,2.4-1.9,2.4-3.5
			c0-1.6-1.1-2.6-3-2.7c-2.2,0.2-4.3,0.8-6.3,1.8c-0.4,0.2-0.8,0.4-1.2,0.6C129.6,8,129.4,8,129.3,8c-0.2,0-0.3-0.1-0.5-0.4
			c-0.4-0.6-0.8-1.2-1.1-1.8C128.9,5.7,130,5.4,131.1,5z"/>
		<path id="パス_220" class="st0" d="M152.5,3.5c0.2-0.1,0.2-0.1,0.3,0.1c0.1,0.5,0.1,0.9,0.2,1.4c0,0.2-0.1,0.2-0.2,0.2
			c-0.9,0.2-1.8,0.3-2.9,0.5c-0.9,2.6-2.1,5.1-3.4,7.4c-0.1,0.1-0.1,0.2-0.2,0.2c-0.1,0-0.1,0-0.2-0.1c-0.4-0.3-0.8-0.6-1.2-0.9
			c-0.1-0.1-0.1-0.1-0.1-0.2c0-0.1,0-0.2,0.1-0.2c1.2-1.9,2.2-3.9,3-6.1c-0.7,0-1.2,0-1.7,0c-0.4,0-0.5,0-1,0
			c-0.2,0-0.2-0.1-0.2-0.3c-0.1-0.5-0.2-1-0.2-1.5c0.7,0.1,1.1,0.1,1.6,0.1c0.7,0,1.2,0,2-0.1c0.2-0.7,0.3-1.3,0.5-1.9
			c0.1-0.5,0.1-0.9,0.1-1.4c0.7,0.1,1.4,0.2,2,0.4c0.2,0,0.3,0.1,0.3,0.3c0,0.1-0.1,0.2-0.2,0.3c-0.1,0.2-0.2,0.4-0.3,0.6
			c-0.1,0.4-0.3,1-0.4,1.5C151.1,3.8,151.8,3.7,152.5,3.5z M153,8.1c0-0.4,0-0.8-0.1-1.2c0.6,0,1.3,0.2,1.9,0.3
			c0.1,0,0.2,0.1,0.2,0.3c0,0.1-0.1,0.2-0.1,0.4c-0.1,0.2-0.1,0.5-0.1,0.7c0,1,0.1,2,0.2,3c1.1,0.4,2.2,1,3.1,1.6
			c0.2,0.1,0.2,0.2,0.1,0.4c-0.2,0.5-0.5,1-0.8,1.4c-0.1,0.1-0.1,0.1-0.2,0.1s-0.1,0-0.2-0.1c-0.7-0.6-1.4-1-2.1-1.5
			c0,1.7-1.3,2.5-3.2,2.5c-1.9,0-3.2-1-3.2-2.5c0-1.5,1.3-2.5,3.2-2.5c0.5,0,0.9,0,1.4,0.1C153.1,10,153,9,153,8.1L153,8.1z
			 M151.8,12.5c-0.9,0-1.5,0.3-1.5,1c0,0.6,0.5,0.8,1.5,0.8c0.9,0,1.5-0.5,1.5-1.2c0-0.1,0-0.2,0-0.3
			C152.7,12.6,152.3,12.5,151.8,12.5L151.8,12.5z M155,4.2c0-0.1,0.2-0.2,0.3-0.1c0,0,0,0,0.1,0c1.2,0.4,2.3,0.9,3.4,1.6
			c0.1,0.1,0.2,0.1,0.2,0.2c0,0.1,0,0.1-0.1,0.2c-0.2,0.4-0.5,0.9-0.7,1.3c-0.1,0.1-0.1,0.1-0.2,0.1c-0.1,0-0.1,0-0.2-0.1
			c-1.1-0.8-2.3-1.4-3.6-1.9C154.5,5,154.8,4.5,155,4.2L155,4.2z"/>
		<path id="パス_221" class="st0" d="M169.6,2.3c0.1,0.1,0.1,0.2,0.1,0.3c0,0.2-0.1,0.3-0.2,0.3c-0.3,0.2-0.6,0.4-0.8,0.6
			c-1.5,1.3-3.4,3.1-4.8,4.5c-0.2,0.2-0.2,0.3-0.2,0.4c0,0.1,0.1,0.2,0.2,0.3c2.3,1.6,4.5,3.5,6.5,5.5c0.1,0.1,0.1,0.1,0.1,0.2
			c0,0.1,0,0.1-0.1,0.2c-0.4,0.4-0.9,0.9-1.2,1.2c-0.1,0.1-0.2,0.1-0.2,0.1s-0.1-0.1-0.2-0.2c-1.9-2.2-4-4.1-6.3-5.9
			c-0.7-0.5-0.9-0.9-0.9-1.5s0.3-1,0.9-1.5c1.5-1.6,2.9-3,4.4-4.7c0.4-0.4,0.7-0.8,0.9-1.3C168.4,1.3,169,1.8,169.6,2.3z M170.4,4.3
			c0.1-0.1,0.2-0.1,0.3,0c0.6,0.5,1.2,1.2,1.6,1.9c0.1,0.1,0.1,0.2,0,0.2c0,0,0,0,0,0c0,0,0,0,0,0l-0.7,0.5c-0.1,0.1-0.2,0.1-0.3,0
			c0,0,0,0,0-0.1c-0.5-0.8-1.1-1.4-1.8-2L170.4,4.3z M172,3.2c0.1-0.1,0.2-0.1,0.3,0c0.6,0.5,1.2,1.1,1.6,1.8c0.1,0.1,0.1,0.2,0,0.3
			c0,0,0,0,0,0l-0.7,0.5c-0.1,0.1-0.2,0.1-0.3,0c0,0,0,0,0,0c0,0,0,0,0-0.1c-0.5-0.8-1.1-1.4-1.7-2L172,3.2z"/>
	</g>
	<g id="グループ_8" transform="translate(2863 3683.258)">
		<g id="レイヤー_2_3_" transform="translate(0 0)">
			<g id="レイヤー_1-2_3_">
				<path id="パス_2" class="st0" d="M171.8,0.8H93.1v9.4h64.6L171.8,0.8z"/>
				<path id="パス_3" class="st0" d="M154,12.2H93.1v9.4h46.8L154,12.2z"/>
				<path id="パス_4" class="st0" d="M93.1,23.6V33h29.1l14.1-9.4L93.1,23.6z"/>
				<path id="パス_5" class="st0" d="M84.8,0.4c-2.9-0.3-5.4,1.8-5.7,4.7c0,0,0,0,0,0l0,0c0,0.4,0,0.7,0,1.1v21.5
					c-0.3,2.9,1.8,5.4,4.7,5.7c0.3,0,0.7,0,1,0c2.9,0.3,5.5-1.8,5.8-4.7c0,0,0,0,0,0c0,0,0,0,0,0c0-0.4,0-0.7,0-1.1V6.2
					c0.3-2.9-1.8-5.5-4.7-5.8L84.8,0.4z M86.1,27.9c0.1,0.7-0.3,1.4-1,1.5c-0.7,0.1-1.4-0.3-1.5-1c0,0,0-0.1,0-0.1
					c0-0.1,0-0.2,0-0.4v-22c0.1-0.7,0.7-1.2,1.4-1.1c0,0,0,0,0,0l0,0c0.6,0.1,1,0.5,1.1,1.1L86.1,27.9L86.1,27.9L86.1,27.9z"/>
				<path id="パス_6" class="st0" d="M7.7,14.7H5.2V0.8H0.7V33h4.5V19h2.5v14h4.5V0.8H7.7V14.7z"/>
				<path id="パス_7" class="st0" d="M46.7,9.8C46,8.9,45.1,8.4,44,8.4c-2.4,0-4.1,1.6-4.1,5.5v14c0,3.9,1.6,5.5,4.1,5.5
					c1.1,0,2.1-0.5,2.7-1.4v1.2H51V0.8h-4.3V9.8z M46.7,28.1c0.1,0.7-0.3,1.3-0.9,1.4c-0.6,0.1-1.2-0.2-1.4-0.8c0,0,0,0,0-0.1
					s0,0,0,0c0-0.2,0-0.3,0-0.5V13.5c0.1-0.6,0.8-1.1,1.4-0.9c0.5,0.1,0.8,0.5,0.9,0.9L46.7,28.1L46.7,28.1z"/>
				<path id="パス_8" class="st0" d="M19.6,8.3c-2.8-0.3-5.2,1.7-5.5,4.5c0,0,0,0,0,0l0,0c0,0.3,0,0.7,0,1v14
					c-0.3,2.7,1.6,5.2,4.4,5.6c0.4,0,0.7,0,1.1,0c2.8,0.3,5.2-1.7,5.5-4.5c0,0,0,0,0,0l0,0c0-0.3,0-0.7,0-1V13.7
					c0.2-2.7-1.8-5.1-4.5-5.4C20.2,8.2,19.9,8.2,19.6,8.3z M20.8,28c0.1,0.6-0.4,1.1-1,1.2c0,0,0,0,0,0h-0.2
					c-0.6,0.1-1.1-0.3-1.2-0.9V13.5c-0.1-0.6,0.3-1.1,0.9-1.2h0.3c0.6-0.1,1.1,0.4,1.2,1c0,0,0,0,0,0L20.8,28L20.8,28z"/>
				<path id="パス_9" class="st0" d="M33.9,8.3c-1.1,0-2.1,0.5-2.7,1.4V8.5H27V33h4.2V13.5c0.2-0.6,0.9-1,1.5-0.8
					c0.4,0.1,0.7,0.4,0.8,0.8V33h4.3V13.8C38,9.8,36.4,8.3,33.9,8.3z"/>
				<path id="パス_10" class="st0" d="M59.4,9.8c-0.6-0.9-1.6-1.4-2.7-1.4c-2.4,0-4.1,1.6-4.1,5.5v14c0,3.9,1.6,5.5,4.1,5.5
					c1.1,0,2.1-0.6,2.7-1.6V33h4.3V8.5h-4.3V9.8z M59.4,28.1c0.1,0.7-0.3,1.3-0.9,1.4c-0.6,0.1-1.2-0.2-1.4-0.8c0,0,0,0,0-0.1
					s0,0,0,0c0-0.2,0-0.3,0-0.5V13.5c0.1-0.6,0.8-1.1,1.4-0.9c0.5,0.1,0.8,0.5,0.9,0.9L59.4,28.1L59.4,28.1z"/>
				<path id="パス_11" class="st0" d="M71.4,0.4c-2.9-0.3-5.5,1.8-5.8,4.7c0,0.3,0,0.7,0,1v21.5c-0.3,2.9,1.8,5.4,4.7,5.7
					c0.3,0,0.6,0,1,0c2.9,0.3,5.5-1.8,5.8-4.7c0-0.3,0-0.7,0-1V14.7h-5.7V19h1.2v8.9c0,0.7-0.6,1.2-1.3,1.2c-0.7,0-1.2-0.5-1.2-1.2
					l0,0v-22c0-0.7,0.6-1.2,1.3-1.2c0.7,0,1.2,0.5,1.2,1.2v4.5h4.5V6.2c0.3-2.9-1.8-5.5-4.7-5.8L71.4,0.4z"/>
			</g>
		</g>
		<g id="グループ_7" transform="translate(182.432 0.368)">
			<path id="パス_12" class="st0" d="M0.7,0.4h7.4c5.4,0,8.2,3.2,8.2,9.5c0,1.7-0.3,3.3-0.9,4.8c-0.6,1.4-1.7,2.5-3.1,3.2l5,14.7
				h-4.9L8.1,18.9H5.3v13.8H0.7L0.7,0.4z M5.3,14.8h2.6c0.7,0,1.3-0.1,1.9-0.3c0.5-0.2,0.8-0.5,1.1-1c0.3-0.5,0.5-1,0.5-1.6
				c0.2-1.4,0.2-2.9,0-4.3C11.4,7,11.2,6.5,10.9,6c-0.3-0.4-0.7-0.8-1.2-1c-0.7-0.2-1.3-0.3-2-0.3H5.3L5.3,14.8L5.3,14.8z"/>
			<path id="パス_13" class="st0" d="M19,0.4h4.6v32.3H19V0.4z"/>
			<path id="パス_14" class="st0" d="M27,0.4h6.8c2.2-0.2,4.4,0.6,6,2.2c1.5,1.7,2.2,3.9,2.1,6.1v15.1c0,3-0.7,5.3-2.2,6.7
				c-1.7,1.5-4,2.3-6.3,2.1H27V0.4z M31.6,28.3h2.1c1,0.1,2-0.3,2.8-1c0.6-0.9,0.9-2,0.8-3.1V8.7c0.1-1-0.2-2.1-0.8-2.9
				c-0.7-0.8-1.8-1.2-2.8-1h-2.1V28.3z"/>
			<path id="パス_15" class="st0" d="M45.1,0.4h13.8v4.4h-9.2v9.5h8v4.4h-8V28h9.2v4.6H45.1V0.4z"/>
		</g>
	</g>
</g>
</svg>
