<?xml version="1.0" encoding="utf-8"?>
<!-- Generator: Adobe Illustrator 25.4.8, SVG Export Plug-In . SVG Version: 6.00 Build 0)  -->
<svg version="1.1" id="LOGO_HondaGO_BIKE_LAB" xmlns="http://www.w3.org/2000/svg" xmlns:xlink="http://www.w3.org/1999/xlink"
	 x="0px" y="0px" viewBox="0 0 360 40" style="enable-background:new 0 0 360 40;" xml:space="preserve">
<style type="text/css">
	.st0{fill:#FFFFFF;}
</style>
<g id="グループ_5296">
	<g id="レイヤー_2_00000039113750971926568760000013823647854259783044_" transform="translate(0 0.344)">
		<g id="レイヤー_1-2">
			<path id="パス_13150" class="st0" d="M205.5,0.5H111v11.3h77.5L205.5,0.5z"/>
			<path id="パス_13151" class="st0" d="M184.2,14.2H111v11.3h56.2L184.2,14.2z"/>
			<path id="パス_13152" class="st0" d="M111,28v11.3H146L162.9,28H111z"/>
			<path id="パス_13153" class="st0" d="M101.1,0c-3.5-0.3-6.5,2.2-6.9,5.6l0,0c-0.1,0.4-0.1,0.8,0,1.3v25.8
				c-0.3,3.4,2.2,6.5,5.6,6.8c0.4,0.1,0.8,0.1,1.2,0c3.5,0.4,6.6-2.2,6.9-5.6v0c0-0.4,0-0.8,0-1.3V7c0.3-3.5-2.2-6.6-5.6-6.9
				L101.1,0z M102.6,33.1c0.1,0.8-0.4,1.6-1.3,1.7s-1.6-0.4-1.7-1.3c0,0,0,0,0,0c0-0.1,0-0.3,0-0.4V6.6c0.1-0.8,0.9-1.4,1.7-1.3
				c0,0,0,0,0,0l0,0c0.7,0.1,1.2,0.6,1.3,1.3L102.6,33.1z"/>
			<path id="パス_13154" class="st0" d="M8.4,17.2h-3V0.5H0v38.7h5.4V22.4h3v16.8h5.4V0.5H8.4L8.4,17.2z"/>
			<path id="パス_13155" class="st0" d="M55.2,11.3c-0.7-1-1.9-1.7-3.2-1.7c-2.8,0-4.9,1.9-4.9,6.6V33c0,4.7,1.9,6.6,4.9,6.6
				c1.3,0,2.5-0.6,3.2-1.7v1.4h5.2V0.5h-5.2V11.3z M55.2,33.4c0.2,0.8-0.3,1.6-1.1,1.7c-0.8,0.2-1.6-0.3-1.7-1.1c0,0,0,0,0-0.1
				c0,0,0,0,0-0.1c0-0.2,0-0.4,0-0.6V15.8c0.2-0.8,0.9-1.3,1.7-1.1c0.6,0.1,1,0.6,1.1,1.1V33.4z"/>
			<path id="パス_13156" class="st0" d="M22.7,9.5c-3.3-0.3-6.3,2.1-6.6,5.4c0,0,0,0,0,0l0,0c0,0.4,0,0.8,0,1.2v16.8
				c-0.4,3.3,2,6.3,5.3,6.7c0.4,0.1,0.9,0.1,1.3,0c3.3,0.3,6.3-2.1,6.6-5.4l0,0c0-0.4,0-0.8,0-1.2V16c0.3-3.3-2.1-6.2-5.4-6.5
				C23.5,9.5,23.1,9.5,22.7,9.5z M24.2,33.2c0.1,0.7-0.5,1.4-1.2,1.4h-0.2c-0.7,0.1-1.4-0.4-1.4-1.1V15.8c-0.1-0.7,0.4-1.3,1.1-1.4
				h0.3c0.7-0.1,1.4,0.5,1.4,1.2L24.2,33.2L24.2,33.2z"/>
			<path id="パス_13157" class="st0" d="M39.9,9.5c-1.3,0-2.5,0.6-3.2,1.7V9.8h-5.1v29.4h5.1V15.7c0.2-0.8,1-1.2,1.8-1
				c0.5,0.1,0.9,0.5,1,1v23.5h5.2V16.1C44.8,11.3,42.9,9.5,39.9,9.5z"/>
			<path id="パス_13158" class="st0" d="M70.6,11.3c-0.7-1-1.9-1.7-3.2-1.7c-2.8,0-4.9,1.9-4.9,6.6V33c0,4.7,1.9,6.6,4.9,6.6
				c1.3,0,2.5-0.7,3.2-1.9v1.4h5.2V9.8h-5.2L70.6,11.3z M70.6,33.4c0.2,0.8-0.3,1.6-1.1,1.7c-0.8,0.2-1.6-0.3-1.7-1.1c0,0,0,0,0-0.1
				c0,0,0,0,0-0.1c0-0.2,0-0.4,0-0.6V15.8c0.2-0.8,0.9-1.3,1.7-1.1c0.6,0.1,1,0.6,1.1,1.1L70.6,33.4z"/>
			<path id="パス_13159" class="st0" d="M85,0c-3.5-0.3-6.6,2.2-6.9,5.6c0,0.4,0,0.8,0,1.2v25.8c-0.3,3.4,2.2,6.5,5.6,6.8
				c0.4,0,0.8,0,1.2,0c3.5,0.3,6.6-2.2,6.9-5.6c0-0.4,0-0.8,0-1.2V17.2H85v5.2h1.5v10.7c0.1,0.8-0.6,1.5-1.4,1.6
				c-0.8,0.1-1.5-0.6-1.6-1.4c0-0.1,0-0.1,0-0.2l0,0l0,0V6.6c0.1-0.8,0.8-1.4,1.6-1.4c0.7,0.1,1.3,0.6,1.4,1.4V12h5.4V7
				c0.3-3.5-2.2-6.6-5.6-6.9L85,0z"/>
		</g>
	</g>
	<g id="グループ_5295" transform="translate(218.778)">
		<path id="パス_13160" class="st0" d="M0,38.8V0h8.1c1.6,0,3.1,0.2,4.5,0.8c1.2,0.5,2.2,1.2,3.1,2.2c0.8,0.9,1.4,2,1.7,3.1
			C17.8,7.3,18,8.6,18,9.8v1.4c0,0.9-0.1,1.8-0.2,2.7c-0.1,0.7-0.4,1.3-0.7,1.9c-0.7,1.1-1.7,2-2.8,2.6c1.2,0.6,2.3,1.5,2.9,2.7
			c0.7,1.5,1,3.2,0.9,4.9v2.2c0,3.4-0.8,6-2.5,7.8c-1.7,1.8-4.3,2.7-7.9,2.7L0,38.8z M5.5,5.2v10.7H8c1.9,0,3.1-0.5,3.7-1.4
			c0.7-1.2,1-2.6,1-4.1c0.1-1.4-0.3-2.8-1.1-3.9c-0.7-0.9-2-1.3-3.8-1.3H5.5z M5.5,20.8v12.4h2.4c0.9,0,1.8-0.1,2.6-0.5
			c0.6-0.3,1.1-0.8,1.4-1.4c0.3-0.6,0.5-1.3,0.6-2.1c0.1-0.8,0.1-1.7,0.1-2.6c0-0.9,0-1.7-0.2-2.6c-0.1-0.7-0.3-1.3-0.7-1.9
			c-0.4-0.5-0.9-0.9-1.5-1.1c-0.8-0.3-1.6-0.4-2.5-0.4L5.5,20.8z"/>
		<path id="パス_13161" class="st0" d="M22,38.8V0h5.6v38.8H22z"/>
		<path id="パス_13162" class="st0" d="M31.6,38.8V0h5.6v17.7h0.1L45.3,0h5.6l-7.6,15.5l9,23.2h-5.9l-6.3-17.2l-3,5.6v11.6
			L31.6,38.8z"/>
		<path id="パス_13163" class="st0" d="M53.4,38.8V0H70v5.2H59v11.4h9.6v5.2H59v11.4h11v5.6L53.4,38.8z"/>
		<path id="パス_13164" class="st0" d="M80.9,38.8V0h5.6v33.2h11v5.6H80.9z"/>
		<path id="パス_13165" class="st0" d="M99.1,38.8L107.8,0h4.6l8.7,38.8h-5.6l-1.6-8.3h-7.6l-1.6,8.3H99.1z M112.8,25.2l-2.7-14
			H110l-2.7,14H112.8z"/>
		<path id="パス_13166" class="st0" d="M123.3,38.8V0h8.1c1.6,0,3.1,0.2,4.5,0.8c1.2,0.5,2.2,1.2,3.1,2.2c0.8,0.9,1.4,2,1.7,3.1
			c0.3,1.2,0.5,2.4,0.5,3.7v1.4c0,0.9-0.1,1.8-0.2,2.7c-0.1,0.7-0.4,1.3-0.7,1.9c-0.7,1.1-1.7,2-2.8,2.6c1.2,0.6,2.3,1.5,2.9,2.7
			c0.7,1.5,1,3.2,0.9,4.9v2.2c0,3.4-0.8,6-2.5,7.8c-1.7,1.8-4.3,2.7-7.9,2.7L123.3,38.8z M128.8,5.2v10.7h2.5c1.9,0,3.1-0.5,3.7-1.4
			c0.7-1.2,1-2.6,1-4.1c0.1-1.4-0.3-2.8-1.1-3.9c-0.7-0.9-2-1.3-3.8-1.3H128.8z M128.8,20.8v12.4h2.4c0.9,0,1.8-0.1,2.6-0.5
			c0.6-0.3,1.1-0.8,1.4-1.4c0.3-0.6,0.5-1.3,0.6-2.1c0.1-0.8,0.1-1.7,0.1-2.6c0-0.9,0-1.7-0.2-2.6c-0.1-0.7-0.3-1.3-0.7-1.9
			c-0.4-0.5-0.9-0.9-1.5-1.1c-0.8-0.3-1.6-0.4-2.5-0.4L128.8,20.8z"/>
	</g>
</g>
</svg>
