<?xml version="1.0" encoding="utf-8"?>
<!-- Generator: Adobe Illustrator 25.4.8, SVG Export Plug-In . SVG Version: 6.00 Build 0)  -->
<svg version="1.1" id="レイヤー_1" xmlns="http://www.w3.org/2000/svg" xmlns:xlink="http://www.w3.org/1999/xlink" x="0px"
	 y="0px" viewBox="0 0 175 20" style="enable-background:new 0 0 175 20;" xml:space="preserve">
<style type="text/css">
	.st0{fill:#FFFFFF;}
</style>
<path id="footer_title_category" class="st0" d="M17.1,12c-1.1,3-2.9,4.3-5.9,4.3C7.9,16.5,5.1,14,5,10.7c0-0.2,0-0.4,0-0.6
	c-0.2-3.4,2.4-6.3,5.8-6.4c0.2,0,0.4,0,0.5,0c2.8,0,4.6,1.2,5.6,3.5h5c-0.4-1.8-1.4-3.3-2.7-4.5c-2.2-1.9-5-2.8-7.9-2.7
	C4.5,0,0,4,0,10.2c-0.1,2.8,1.1,5.5,3.2,7.3c2,1.7,4.6,2.5,8.1,2.5c6,0,9.7-2.6,11-8H17.1z M37.7,15.3l1.9,4h5.2L36,0.7h-4.6
	l-8.9,18.7h5.2l1.7-4H37.7z M36,11.5h-4.9l1.2-2.9C33,7.1,33.1,6.9,33.4,6c0.4,0.9,0.6,1.5,1.1,2.6L36,11.5z M54.1,4.4h6.4V0.7H43
	v3.8h6.5v14.9h4.7V4.4z M80.1,19.3v-3.8H67.7v-4.2h11V7.6h-11V4.4h12.4V0.7H63v18.7H80.1z M104.5,19.3V9.1h-9.2v3.8h4.7
	c-1.1,2.2-3.4,3.6-5.9,3.5c-3.5,0.1-6.3-2.6-6.4-6.1c0-0.1,0-0.2,0-0.3c-0.1-3.4,2.6-6.3,6-6.5c0.1,0,0.3,0,0.4,0
	c2.7,0,4.6,1.2,5.5,3.4h5C103.4,2.4,99.8,0,94.2,0c-3.6,0-6.4,1-8.5,2.9c-2,1.9-3.1,4.5-3.1,7.3C82.7,16,87,20,93.3,20
	c2.7,0.1,5.4-0.9,7.5-2.6l0.3,2H104.5z M119.1,0c-6.5,0-11.4,4.3-11.4,10c0,5.7,4.9,10,11.4,10c3,0.1,5.8-0.9,8.1-2.8
	c2-1.8,3.2-4.3,3.3-7.1C130.5,4.2,125.7,0,119.1,0L119.1,0z M119.1,3.7c3.4-0.1,6.3,2.7,6.3,6.1c0,0.1,0,0.2,0,0.3
	c0,3.4-2.8,6.2-6.2,6.3c0,0-0.1,0-0.1,0c-3.4,0-6.3-2.7-6.3-6.2c0-0.1,0-0.1,0-0.2c-0.1-3.4,2.7-6.3,6.1-6.3
	C119,3.7,119,3.7,119.1,3.7L119.1,3.7z M138.6,12.5h5.6c2.4,0,3.2,0.8,3.1,3.6c-0.1,1.1,0,2.2,0.4,3.2h5.2c-0.6-1.3-0.9-2.8-0.8-4.2
	c-0.1-2.9-0.6-3.9-2.5-4.6c2-0.7,3.3-2.6,3.2-4.7c0-1.7-0.8-3.3-2.3-4.2c-1.4-0.7-2.9-1.1-4.5-0.9H134v18.7h4.7V12.5z M138.6,8.8
	V4.4h6.2c0.6-0.1,1.3,0,1.9,0.3c0.7,0.4,1.1,1.1,1.1,1.9c0,0.8-0.4,1.5-1.1,1.9c-0.6,0.3-1.2,0.4-1.9,0.3L138.6,8.8z M166.5,19.3
	v-7.9L175,0.7h-5.8l-4.9,6.7l-4.9-6.7h-5.8l8.3,10.8v7.9H166.5z"/>
</svg>
