<?xml version="1.0" encoding="utf-8"?>
<!-- Generator: Adobe Illustrator 25.4.8, SVG Export Plug-In . SVG Version: 6.00 Build 0)  -->
<svg version="1.1" id="レイヤー_1" xmlns="http://www.w3.org/2000/svg" xmlns:xlink="http://www.w3.org/1999/xlink" x="0px"
	 y="0px" viewBox="0 0 71 20" style="enable-background:new 0 0 71 20;" xml:space="preserve">
<style type="text/css">
	.st0{fill:#FFFFFF;}
</style>
<path id="footer_title_link" class="st0" d="M14.8,19.3v-3.8H5.1V0.7H0.4v18.7H14.8z M22.2,19.3V0.7h-4.7v18.7H22.2z M46.5,19.3V0.7
	h-4.5v5.7c0,4.5,0.1,6.9,0.1,8c-1.1-1.8-3.8-5.4-5.5-7.8l-4.5-6h-5.6v18.7H31v-5.6c0-6,0-6.4-0.1-8.1c1.1,1.8,2.7,4.1,5.2,7.4
	l4.8,6.4H46.5z M61.4,8.3l8.8-7.6h-6.6L55.4,8V0.7h-4.7v18.7h4.7v-5.9l2.5-2.2l6.5,8.1h6.2L61.4,8.3z"/>
</svg>
