<?xml version="1.0" encoding="UTF-8"?><svg id="_イヤー_1" xmlns="http://www.w3.org/2000/svg" viewBox="0 0 30 30"><path d="M25.59,0c2.44,0,4.41,1.97,4.41,4.41h0V25.59c0,2.44-1.97,4.41-4.41,4.41H4.41C1.98,30,0,28.03,0,25.59h0V4.41C0,1.98,1.97,0,4.41,0H25.59Zm-6.3,19.9c0,.97,.79,1.77,1.76,1.76,.97,0,1.75-.79,1.75-1.76s-.79-1.75-1.76-1.75c-.96,0-1.75,.78-1.75,1.75h0Zm-5.29,1.5c.58-.08,1.13-.25,1.65-.51,.54-.27,.98-.71,1.27-1.24,.31-.57,.46-1.2,.45-1.85,.04-.85-.24-1.69-.79-2.34-.56-.61-1.35-.97-2.18-.99,.69-.15,1.33-.5,1.82-1.01,.41-.5,.62-1.13,.58-1.78,0-.55-.12-1.09-.38-1.57-.26-.45-.64-.83-1.1-1.09-.48-.25-.99-.43-1.53-.51-1.03-.12-2.06-.17-3.09-.15h-3.64v13.11h3.7s2.15,.06,3.22-.06Zm-2.3-5.08c.62-.05,1.24,.06,1.8,.33,.35,.28,.54,.72,.49,1.16,.04,.43-.16,.84-.52,1.07-.56,.26-1.18,.37-1.8,.32h-1.26v-2.87h1.3Zm10.82,.88V8.39h-3.08v8.82h3.08Zm-11.35-5.86c.61-.05,1.23,.05,1.79,.3,.33,.24,.5,.64,.46,1.04,.04,.4-.15,.79-.49,1.01-.57,.24-1.2,.34-1.82,.29h-.71v-2.63h.77Z" fill="#00a4de"/></svg>