<?xml version="1.0" encoding="utf-8"?>
<!-- Generator: Adobe Illustrator 25.4.8, SVG Export Plug-In . SVG Version: 6.00 Build 0)  -->
<svg version="1.1" id="LOGO_HondaGO_BIKE_LAB" xmlns="http://www.w3.org/2000/svg" xmlns:xlink="http://www.w3.org/1999/xlink"
	 x="0px" y="0px" viewBox="0 0 272 30" style="enable-background:new 0 0 272 30;" xml:space="preserve">
<g id="グループ_5296">
	<g id="レイヤー_2_00000176012893737123034980000016814695655968348330_" transform="translate(0 0.258)">
		<g id="レイヤー_1-2">
			<path id="パス_13150" d="M155.2,0.4H84.3v8.5h58.2L155.2,0.4z"/>
			<path id="パス_13151" d="M139.2,10.7H84.3v8.5h42.2L139.2,10.7z"/>
			<path id="パス_13152" d="M84.3,21v8.5h26.2l12.7-8.5H84.3z"/>
			<path id="パス_13153" d="M76.8,0c-2.6-0.3-4.9,1.6-5.2,4.2l0,0c0,0.3,0,0.6,0,1v19.3c-0.2,2.6,1.6,4.9,4.2,5.1c0,0,0,0,0,0
				c0.3,0,0.6,0,0.9,0c2.6,0.3,4.9-1.6,5.2-4.2v0c0-0.3,0-0.6,0-1V5.2c0.3-2.6-1.6-4.9-4.2-5.2L76.8,0z M77.9,24.8
				c0.1,0.6-0.3,1.2-1,1.3c-0.6,0.1-1.2-0.3-1.3-1l0,0c0-0.1,0-0.2,0-0.3V5c0.1-0.6,0.7-1.1,1.3-1l0,0c0.5,0.1,0.9,0.5,1,1V24.8z"/>
			<path id="パス_13154" d="M7.2,12.9H5V0.4h-4v29.1h4V16.8h2.3v12.6h4V0.4h-4V12.9z"/>
			<path id="パス_13155" d="M42.4,8.5c-0.6-0.8-1.4-1.3-2.4-1.3c-2.1,0-3.7,1.5-3.7,5v12.6c0,3.5,1.5,5,3.7,5c1,0,1.9-0.5,2.4-1.3
				v1.1h3.9V0.4h-3.9V8.5z M42.4,25c0.1,0.6-0.2,1.2-0.8,1.3c-0.6,0.1-1.2-0.2-1.3-0.8c0,0,0,0,0,0c0-0.1,0-0.3,0-0.4V11.8
				c0.1-0.6,0.7-1,1.3-0.8c0.4,0.1,0.8,0.4,0.8,0.8V25z"/>
			<path id="パス_13156" d="M18,7.1c-2.5-0.2-4.7,1.6-5,4.1l0,0c0,0.3,0,0.6,0,0.9v12.6c-0.3,2.5,1.5,4.7,4,5c0.3,0,0.7,0,1,0
				c2.5,0.2,4.7-1.6,5-4.1l0,0c0-0.3,0-0.6,0-0.9V12c0.2-2.5-1.6-4.6-4.1-4.9C18.6,7.1,18.3,7.1,18,7.1z M19.1,24.9
				c0,0.5-0.4,1-0.9,1.1H18c-0.5,0.1-1-0.3-1.1-0.8V11.8c-0.1-0.5,0.3-1,0.8-1.1H18c0.5,0,1,0.4,1.1,0.9L19.1,24.9L19.1,24.9z"/>
			<path id="パス_13157" d="M30.9,7.1c-1,0-1.9,0.5-2.4,1.2v-1h-3.8v22.1h3.8V11.8c0.2-0.6,0.8-0.9,1.4-0.8
				c0.4,0.1,0.7,0.4,0.8,0.8v17.6h3.9V12.1C34.6,8.5,33.1,7.1,30.9,7.1z"/>
			<path id="パス_13158" d="M53.9,8.5c-0.5-0.8-1.4-1.3-2.4-1.3c-2.1,0-3.7,1.5-3.7,5v12.6c0,3.5,1.5,5,3.7,5c1,0,1.9-0.6,2.4-1.4
				v1.1h3.9V7.3h-3.9V8.5z M53.9,25c0.1,0.6-0.2,1.2-0.8,1.3c-0.6,0.1-1.2-0.2-1.3-0.8c0,0,0,0,0,0c0-0.1,0-0.3,0-0.4V11.8
				c0.1-0.6,0.7-1,1.3-0.8c0.4,0.1,0.8,0.4,0.8,0.8V25z"/>
			<path id="パス_13159" d="M64.7,0c-2.6-0.3-4.9,1.6-5.2,4.2c0,0.3,0,0.6,0,0.9v19.3c-0.2,2.6,1.7,4.9,4.2,5.1c0.3,0,0.6,0,0.9,0
				c2.6,0.3,4.9-1.6,5.2-4.2c0-0.3,0-0.6,0-0.9V12.9h-5.1v3.9h1.1v8c0,0.6-0.5,1.1-1.1,1.2c-0.6,0-1.1-0.5-1.2-1.1c0,0,0,0,0-0.1
				l0,0l0,0V5c0-0.6,0.5-1.1,1.2-1.1c0.6,0,1.1,0.5,1.1,1.1v4h4.1V5.2c0.3-2.6-1.6-4.9-4.2-5.2L64.7,0z"/>
		</g>
	</g>
	<g id="グループ_5295" transform="translate(164.163)">
		<path id="パス_13160" d="M0.9,29.1V0H7c1.2,0,2.3,0.2,3.4,0.6c0.9,0.4,1.7,0.9,2.3,1.6c0.6,0.7,1,1.5,1.3,2.3
			c0.3,0.9,0.4,1.8,0.4,2.8v1.1c0,0.7-0.1,1.3-0.2,2c-0.1,0.5-0.3,1-0.6,1.4c-0.5,0.8-1.3,1.5-2.1,2c0.9,0.4,1.7,1.1,2.2,2
			c0.5,1.2,0.8,2.4,0.7,3.7v1.6c0.1,2.1-0.5,4.2-1.9,5.9c-1.2,1.4-3.2,2-5.9,2L0.9,29.1z M5.1,3.9v8H7c1,0.1,2.1-0.3,2.8-1
			c0.5-0.9,0.8-2,0.7-3c0.1-1-0.2-2.1-0.8-2.9c-0.8-0.7-1.8-1.1-2.9-1H5.1z M5.1,15.6v9.3h1.8c0.7,0,1.4-0.1,2-0.4
			c0.5-0.2,0.8-0.6,1.1-1c0.3-0.5,0.4-1,0.5-1.6c0.1-0.6,0.1-1.3,0.1-2c0-0.6,0-1.3-0.1-1.9c-0.1-0.5-0.2-1-0.5-1.4
			c-0.3-0.4-0.7-0.7-1.1-0.8c-0.6-0.2-1.2-0.3-1.8-0.3L5.1,15.6z"/>
		<path id="パス_13161" d="M17.4,29.1V0h4.2v29.1L17.4,29.1z"/>
		<path id="パス_13162" d="M24.6,29.1V0h4.2v13.3h0.1L35,0h4.2l-5.7,11.6l6.7,17.4h-4.4L31,16.2l-2.2,4.2v8.7L24.6,29.1z"/>
		<path id="パス_13163" d="M41,29.1V0h12.4v3.9h-8.3v8.5h7.2v3.9h-7.2v8.5h8.3v4.2H41z"/>
		<path id="パス_13164" d="M61.7,29.1V0h4.2v24.9h8.3v4.2H61.7z"/>
		<path id="パス_13165" d="M75.3,29.1L81.8,0h3.5l6.5,29.1h-4.2l-1.2-6.2h-5.7l-1.2,6.2H75.3z M85.6,18.9l-2-10.5h-0.1l-2,10.5
			H85.6z"/>
		<path id="パス_13166" d="M93.4,29.1V0h6.1c1.2,0,2.3,0.2,3.4,0.6c0.9,0.4,1.7,0.9,2.3,1.6c0.6,0.7,1,1.5,1.3,2.3
			c0.3,0.9,0.4,1.8,0.4,2.8v1.1c0,0.7-0.1,1.3-0.2,2c-0.1,0.5-0.3,1-0.5,1.4c-0.5,0.8-1.3,1.5-2.1,2c0.9,0.4,1.7,1.1,2.2,2
			c0.5,1.2,0.8,2.4,0.7,3.7v1.6c0.1,2.1-0.5,4.2-1.9,5.9c-1.2,1.4-3.2,2-5.9,2L93.4,29.1z M97.6,3.9v8h1.9c1,0.1,2.1-0.3,2.8-1
			c0.5-0.9,0.8-2,0.7-3c0.1-1-0.2-2.1-0.8-2.9c-0.8-0.7-1.8-1.1-2.9-1H97.6z M97.6,15.6v9.3h1.8c0.7,0,1.4-0.1,2-0.4
			c0.5-0.2,0.8-0.6,1.1-1c0.3-0.5,0.4-1,0.5-1.6c0.1-0.6,0.1-1.3,0.1-2c0-0.6,0-1.3-0.1-1.9c-0.1-0.5-0.2-1-0.5-1.4
			c-0.3-0.4-0.7-0.7-1.1-0.8c-0.6-0.2-1.2-0.3-1.8-0.3L97.6,15.6z"/>
	</g>
</g>
</svg>
