<svg xmlns="http://www.w3.org/2000/svg" width="32" height="32" viewBox="0 0 32 32">
  <path id="pinterest" d="M32,16.563A16,16,0,0,1,11.265,31.846a17.986,17.986,0,0,0,1.987-4.194c.194-.748.994-3.806.994-3.806a4.285,4.285,0,0,0,3.665,1.839c4.826,0,8.3-4.439,8.3-9.955,0-5.284-4.316-9.239-9.865-9.239-6.9,0-10.574,4.632-10.574,9.684,0,2.348,1.252,5.271,3.245,6.2.3.142.465.077.535-.213.052-.219.323-1.31.445-1.813a.479.479,0,0,0-.11-.458A6.3,6.3,0,0,1,8.71,16.24,6.924,6.924,0,0,1,15.935,9.3a6.317,6.317,0,0,1,6.684,6.51c0,4.329-2.187,7.329-5.032,7.329a2.321,2.321,0,0,1-2.368-2.89c.452-1.9,1.323-3.955,1.323-5.329a2.009,2.009,0,0,0-2.026-2.252c-1.606,0-2.9,1.658-2.9,3.884a5.765,5.765,0,0,0,.477,2.374s-1.581,6.7-1.871,7.948a15.488,15.488,0,0,0-.058,4.594A16,16,0,1,1,32,16.563Z" transform="translate(0 -0.563)" fill="#d4121c"/>
</svg>
