<?xml version="1.0" encoding="utf-8"?>
<!-- Generator: Adobe Illustrator 25.4.8, SVG Export Plug-In . SVG Version: 6.00 Build 0)  -->
<svg version="1.1" id="レイヤー_1" xmlns="http://www.w3.org/2000/svg" xmlns:xlink="http://www.w3.org/1999/xlink" x="0px"
	 y="0px" viewBox="0 0 38 27" style="enable-background:new 0 0 38 27;" xml:space="preserve">
<style type="text/css">
	.st0{fill:#FFFFFF;}
</style>
<path id="sns_youtube" class="st0" d="M37.2,4.3c-0.4-1.6-1.7-2.9-3.4-3.4C30.9,0.1,19,0.1,19,0.1S7.1,0.1,4.2,0.9
	C2.5,1.4,1.2,2.6,0.8,4.3C0,7.3,0,13.5,0,13.5s0,6.2,0.8,9.2c0.4,1.6,1.7,2.9,3.4,3.4c3,0.8,14.8,0.8,14.8,0.8s11.9,0,14.8-0.8
	c1.6-0.4,2.9-1.7,3.4-3.4c0.8-3,0.8-9.2,0.8-9.2S38,7.3,37.2,4.3z M15.1,19.1V7.8l9.9,5.7L15.1,19.1z"/>
</svg>
